<svg version="1.0" xmlns="http://www.w3.org/2000/svg"
 width="512.000000pt" height="512.000000pt" viewBox="0 0 512.000000 512.000000"
 preserveAspectRatio="xMidYMid meet">
<g transform="translate(0.000000,512.000000) scale(0.100000,-0.100000)"
fill="#000000" stroke="none">
<path d="M300 5117 c0 -19 411 -4601 412 -4602 10 -7 1827 -515 1843 -515 16
0 1843 508 1853 515 1 1 412 4583 412 4602 0 2 -1017 3 -2260 3 -1243 0 -2260
-1 -2260 -3z m2260 -632 c0 -8 -34 -145 -76 -303 -41 -158 -80 -304 -85 -324
l-10 -38 -394 0 c-309 0 -395 -3 -395 -12 -1 -24 51 -623 56 -655 l5 -33 269
0 c210 0 270 -3 270 -12 0 -7 -40 -164 -88 -348 l-88 -335 -152 -3 -152 -3 0
-26 c0 -15 16 -212 36 -438 l36 -412 -86 -328 c-47 -180 -87 -329 -90 -332 -2
-2 -109 25 -238 60 l-233 64 -146 1684 c-81 926 -149 1712 -152 1747 l-6 62
859 0 c760 0 860 -2 860 -15z m1710 -7 c0 -72 -300 -3462 -307 -3468 -4 -4
-322 -94 -707 -200 l-698 -192 -302 82 c-165 46 -304 86 -308 89 -7 6 152 638
166 659 3 5 103 -17 221 -49 l216 -59 377 102 c207 55 379 102 380 104 2 1 23
199 46 438 l42 436 -513 0 c-282 0 -513 3 -513 7 0 9 158 617 171 661 l11 32
454 0 454 0 0 28 c1 15 14 169 29 342 15 173 26 318 24 323 -2 4 -177 7 -389
7 -283 0 -384 3 -384 12 0 9 148 590 166 651 5 16 46 17 685 17 l679 0 0 -22z"/>
</g>
</svg>
