<?xml version="1.0" standalone="no"?>
<!DOCTYPE svg PUBLIC "-//W3C//DTD SVG 20010904//EN"
 "http://www.w3.org/TR/2001/REC-SVG-20010904/DTD/svg10.dtd">
<svg version="1.0" xmlns="http://www.w3.org/2000/svg"
 width="90.000000pt" height="90.000000pt" viewBox="0 0 90.000000 90.000000"
 preserveAspectRatio="xMidYMid meet">
<metadata>
Created by potrace 1.16, written by Peter Selinger 2001-2019
</metadata>
<g transform="translate(0.000000,90.000000) scale(0.100000,-0.100000)"
fill="#000000" stroke="none">
<path d="M72 768 c-9 -9 -12 -96 -12 -330 l0 -318 390 0 390 0 0 318 c0 234
-3 321 -12 330 -17 17 -739 17 -756 0z m708 -378 l0 -210 -330 0 -330 0 0 210
0 210 330 0 330 0 0 -210z"/>
<path d="M468 542 c-10 -2 -22 -19 -27 -40 -37 -141 -51 -204 -51 -231 0 -28
3 -31 30 -31 32 0 27 -12 69 157 32 125 27 156 -21 145z"/>
<path d="M236 450 l-38 -60 38 -59 c37 -58 61 -76 81 -62 21 14 20 40 -3 74
-30 44 -30 50 0 93 29 44 24 74 -13 74 -21 0 -34 -12 -65 -60z"/>
<path d="M567 491 c-3 -11 6 -35 19 -55 30 -43 30 -49 0 -93 -23 -34 -24 -60
-3 -74 20 -14 44 4 81 62 l38 59 -38 60 c-31 48 -44 60 -65 60 -18 0 -28 -6
-32 -19z"/>
</g>
</svg>
