<?xml version="1.0" standalone="no"?>
<!DOCTYPE svg PUBLIC "-//W3C//DTD SVG 20010904//EN"
 "http://www.w3.org/TR/2001/REC-SVG-20010904/DTD/svg10.dtd">
<svg version="1.0" xmlns="http://www.w3.org/2000/svg"
 width="99.000000pt" height="99.000000pt" viewBox="0 0 99.000000 99.000000"
 preserveAspectRatio="xMidYMid meet">
<metadata>
Created by potrace 1.16, written by Peter Selinger 2001-2019
</metadata>
<g transform="translate(0.000000,99.000000) scale(0.100000,-0.100000)"
fill="#000000" stroke="none">
<path d="M427 943 c-3 -10 -9 -33 -12 -51 -4 -18 -14 -36 -23 -38 -10 -3 -32
-12 -50 -20 -31 -13 -35 -13 -70 11 -20 14 -41 25 -47 25 -19 0 -85 -75 -85
-95 0 -11 9 -31 20 -45 24 -31 24 -38 1 -93 -17 -39 -24 -45 -62 -53 l-44 -9
-3 -67 -3 -67 46 -7 c44 -6 47 -9 70 -61 l24 -54 -26 -40 -26 -40 38 -39 c22
-22 43 -40 47 -40 5 0 26 11 46 25 l38 25 42 -22 c41 -22 42 -24 42 -75 0 -63
17 -83 68 -82 l37 1 -40 13 -40 12 3 112 3 111 -44 43 c-69 67 -83 166 -33
232 14 19 15 17 16 -27 0 -47 1 -49 62 -93 34 -25 67 -45 73 -45 6 0 39 20 73
45 61 44 62 46 62 93 1 44 2 46 16 27 50 -67 37 -164 -34 -232 l-43 -43 3
-111 3 -112 -40 -12 -40 -13 37 -1 c52 -1 68 19 68 88 l0 58 39 15 c38 15 40
15 83 -13 l43 -29 40 40 40 40 -23 43 -23 43 22 52 c19 46 25 52 58 58 62 10
61 9 61 78 l0 64 -48 11 c-45 11 -49 15 -65 61 l-18 50 26 37 c14 21 25 41 25
45 0 4 -16 26 -36 48 -41 45 -66 50 -104 20 -14 -11 -30 -20 -37 -20 -9 0 -65
22 -91 36 -2 1 -8 24 -15 50 l-12 49 -67 3 c-57 2 -67 0 -71 -15z m108 -71 c8
-50 12 -54 70 -75 82 -30 92 -31 125 -7 l32 23 21 -22 c19 -19 20 -24 8 -44
-8 -12 -19 -30 -25 -39 -9 -15 3 -56 44 -138 4 -8 28 -19 53 -24 45 -9 47 -11
47 -42 0 -30 -4 -34 -37 -43 -21 -6 -44 -11 -50 -11 -7 0 -13 -6 -13 -12 0 -7
-12 -37 -25 -67 l-26 -54 27 -40 26 -40 -29 -28 -28 -29 -38 25 -37 26 -40
-21 -40 -20 0 34 c0 29 9 44 49 84 74 74 89 168 41 262 -24 47 -65 84 -84 77
-12 -5 -16 -22 -16 -71 l0 -65 -44 -31 c-25 -16 -47 -30 -51 -30 -4 0 -26 14
-51 30 l-44 31 0 65 c0 49 -4 66 -16 71 -19 7 -60 -30 -84 -77 -48 -94 -33
-188 41 -262 43 -43 49 -54 49 -90 0 -39 0 -40 -22 -26 -66 43 -62 42 -105 15
l-40 -26 -22 29 c-26 35 -26 39 -1 70 20 26 26 65 11 74 -4 3 -14 26 -21 51
-11 39 -17 46 -49 55 -20 5 -42 10 -48 10 -8 0 -13 14 -13 34 0 36 2 38 68 51
18 4 36 14 38 23 3 10 15 39 27 66 l21 48 -22 41 -22 41 20 20 c18 18 23 19
43 7 12 -8 30 -19 39 -25 12 -7 29 -5 65 12 26 11 57 23 68 24 14 2 23 16 32
48 6 25 12 46 12 48 1 1 14 2 30 2 26 0 30 -4 36 -38z"/>
</g>
</svg>
